<svg width="124" height="158" viewBox="0 0 124 158" fill="none" xmlns="http://www.w3.org/2000/svg">
<path d="M83.917 88.4908C82.7741 93.6674 83.581 98.9167 82.1316 104.045C80.8095 108.723 77.2843 112.266 75.5075 116.697C71.7396 126.096 72.7491 137.527 73.4911 147.118C73.5143 147.442 72.8477 147.186 72.8231 146.864C72.0745 137.208 71.3911 126.898 74.512 117.282C76.0392 112.583 79.1608 109.038 81.1131 104.627C83.3334 99.6147 82.0978 93.4323 83.2755 88.1029C83.3396 87.814 83.9961 88.1388 83.917 88.4908Z" fill="#F0892C"/>
<path d="M69.6036 52.6132C72.3247 38.5502 83.0799 32.6409 94.5067 34.8521C105.936 37.0655 113.709 46.5594 110.988 60.6229C108.391 74.043 96.7389 89.0089 85.7466 88.422L87.1736 92.1989C87.1736 92.1989 86.1593 93.0475 83.351 92.5033C80.5413 91.9593 79.9169 90.7956 79.9169 90.7956L82.6499 87.8242C72.2319 84.2661 67.0062 66.0337 69.6036 52.6132Z" fill="#F0892C"/>
<mask id="mask0_284_41968" style="mask-type:luminance" maskUnits="userSpaceOnUse" x="57" y="42" width="55" height="56">
<path d="M111.295 57.273L72.7386 42.9874L57.8406 83.1974L96.3975 97.4829L111.295 57.273Z" fill="white"/>
</mask>
<g mask="url(#mask0_284_41968)">
<path d="M83.3507 92.5034C80.5418 91.9589 79.9168 90.7951 79.9168 90.7951L82.6498 87.8237C72.2322 84.2663 67.0065 66.034 69.6033 52.6132C70.3205 48.9065 71.5967 45.7671 73.2949 43.1937C76.213 54.6936 85.6468 84.1122 104.3 76.152C99.3155 83.4179 92.41 88.7798 85.7463 88.422L87.1736 92.1984C87.1736 92.1984 86.1591 93.0476 83.3507 92.5034Z" fill="#F0892C"/>
</g>
<mask id="mask1_284_41968" style="mask-type:luminance" maskUnits="userSpaceOnUse" x="85" y="36" width="28" height="27">
<path d="M112.96 44.1715L92.232 36.4916L85.5618 54.4944L106.29 62.1743L112.96 44.1715Z" fill="white"/>
</mask>
<g mask="url(#mask1_284_41968)">
<g opacity="0.5">
<mask id="mask2_284_41968" style="mask-type:luminance" maskUnits="userSpaceOnUse" x="85" y="36" width="28" height="27">
<path d="M112.96 44.1715L92.232 36.4916L85.5618 54.4944L106.29 62.1743L112.96 44.1715Z" fill="white"/>
</mask>
<g mask="url(#mask2_284_41968)">
<path d="M92.633 54.0326C96.525 59.5177 102.645 61.8602 106.305 59.2656C109.964 56.6694 109.778 50.1207 105.889 44.6342C101.998 39.1472 95.8765 36.8058 92.2167 39.4018C88.5578 41.9973 88.7438 48.5466 92.633 54.0326Z" fill="#F0892C"/>
</g>
</g>
</g>
<path d="M67.2712 67.6037C71.0481 68.3308 72.4727 73.712 73.3508 77.9982C74.9858 85.9672 72.4668 93.154 70.8499 101.152C69.8103 106.289 70.6205 110.757 72.3826 115.035C74.0449 119.069 75.2307 122.991 75.8915 127.631C77.228 137.023 76.2454 147.099 76.0475 156.76C76.0357 157.319 75.1571 157.255 75.1691 156.679C75.3447 147.918 75.99 139.099 75.3076 130.46C74.9514 125.973 74.0301 121.71 72.5834 117.757C71.4502 114.662 70.1356 112.077 69.6172 108.597C68.5838 101.674 71.9604 94.2801 72.9376 87.3932C73.7337 81.7909 72.2332 69.4351 67.1616 68.4594C66.6316 68.3561 66.7289 67.4991 67.2712 67.6037Z" fill="#FCBB2D"/>
<path d="M41.4583 39.2149C38.87 22.0869 48.7379 11.0012 62.6557 8.89989C76.5759 6.79887 89.2776 14.4764 91.8619 31.6049C94.3306 47.9516 87.1052 69.7198 74.3384 73.4976L77.4931 77.2244C77.4931 77.2244 76.6804 78.6036 73.2584 79.1194C69.8376 79.6356 68.6542 78.5596 68.6542 78.5596L70.5686 74.0669C57.2574 74.2278 43.9237 55.5623 41.4583 39.2149Z" fill="#FCBB2D"/>
<path d="M73.2584 79.119C69.8381 79.6354 68.6542 78.5592 68.6542 78.5592L70.5689 74.0673C57.2574 74.2275 43.9242 55.5621 41.4583 39.2145C40.776 34.6997 40.9583 30.6067 41.8536 26.9859C49.831 38.9125 72.4819 68.6251 90.5223 52.0087C87.7796 62.3069 82.0781 71.2091 74.3384 73.4973L77.4931 77.2241C77.4931 77.2241 76.6802 78.6038 73.2584 79.119Z" fill="#FCBB2D"/>
<mask id="mask3_284_41968" style="mask-type:luminance" maskUnits="userSpaceOnUse" x="55" y="10" width="37" height="32">
<path d="M91.9283 21.2135L63.4004 10.6438L55.9305 30.8049L84.4585 41.3746L91.9283 21.2135Z" fill="white"/>
</mask>
<g mask="url(#mask3_284_41968)">
<g opacity="0.399994">
<mask id="mask4_284_41968" style="mask-type:luminance" maskUnits="userSpaceOnUse" x="55" y="10" width="37" height="32">
<path d="M91.9283 21.2135L63.4004 10.6438L55.9305 30.8049L84.4585 41.3746L91.9283 21.2135Z" fill="white"/>
</mask>
<g mask="url(#mask4_284_41968)">
<path d="M67.984 34.4642C74.9803 39.3845 83.3176 39.5887 86.6024 34.9186C89.8857 30.2506 86.8749 22.4769 79.8775 17.5543C72.8756 12.6332 64.5408 12.4274 61.258 17.0975C57.9732 21.7662 60.9827 29.5414 67.984 34.4642Z" fill="#FCBB2D"/>
</g>
</g>
</g>
<path d="M61.6409 93.7232C62.6924 99.0008 62.0875 104.777 64.245 109.521C66.0902 113.568 69.8694 115.176 72.0274 118.879C73.9716 122.213 73.0815 127.352 73.3528 131.382C73.6541 135.83 75.3738 141.783 79.5102 141.02C79.976 140.936 79.7769 141.536 79.4182 141.601C71.817 143.003 73.0067 129.262 72.4791 123.087C71.9518 116.905 66.6435 114.916 64.0101 110.673C61.2065 106.158 62.048 99.4715 60.9623 94.0091C60.8918 93.6569 61.5708 93.3665 61.6409 93.7232Z" fill="#C4C24B"/>
<path d="M29.7839 75.9704C22.8602 64.3693 26.7108 53.4549 36.1389 47.8295C45.5654 42.2035 56.9998 43.9956 63.9207 55.5975C70.5282 66.6692 71.7383 84.5155 63.6401 91.01L67.0141 92.7692C67.0141 92.7692 66.8363 94.0029 64.5191 95.3858C62.1998 96.7692 61.029 96.3418 61.029 96.3418L61.0864 92.5338C51.5223 96.5801 36.3903 87.0416 29.7839 75.9704Z" fill="#C4C24B"/>
<path d="M64.5189 95.3858C62.2001 96.7694 61.0288 96.3418 61.0288 96.3418L61.0862 92.5338C51.5223 96.5796 36.3903 87.0411 29.7837 75.9704C27.9574 72.9123 26.8814 69.9037 26.4599 67.0245C35.7392 73.2799 60.8607 88.0406 68.9772 70.7214C70.0379 78.963 68.5491 87.0728 63.6401 91.0094L67.0141 92.7686C67.0141 92.7686 66.8366 94.0031 64.5189 95.3858Z" fill="#C4C24B"/>
<mask id="mask5_284_41968" style="mask-type:luminance" maskUnits="userSpaceOnUse" x="36" y="43" width="25" height="21">
<path d="M60.2656 50.6277L41.0693 43.5154L36.251 56.5201L55.4473 63.6324L60.2656 50.6277Z" fill="white"/>
</mask>
<g mask="url(#mask5_284_41968)">
<g opacity="0.399994">
<mask id="mask6_284_41968" style="mask-type:luminance" maskUnits="userSpaceOnUse" x="36" y="43" width="25" height="21">
<path d="M60.2656 50.6277L41.0693 43.5154L36.251 56.5201L55.4473 63.6324L60.2656 50.6277Z" fill="white"/>
</mask>
<g mask="url(#mask6_284_41968)">
<path d="M46.7282 60.2622C52.2649 61.5284 57.4369 59.5595 58.283 55.8652C59.1272 52.1709 55.3223 48.1505 49.7874 46.8844C44.2511 45.619 39.0767 47.5877 38.234 51.2813C37.3877 54.9761 41.1912 58.9966 46.7282 60.2622Z" fill="#C4C24B"/>
</g>
</g>
</g>
</svg>
