<?xml version="1.0" encoding="UTF-8" standalone="no"?>
<!-- Created with Inkscape (http://www.inkscape.org/) -->

<svg
   width="1905.0049mm"
   height="47.394287mm"
   viewBox="0 0 1905.0049 47.394287"
   version="1.1"
   id="svg5"
   xml:space="preserve"
   xmlns:inkscape="http://www.inkscape.org/namespaces/inkscape"
   xmlns:sodipodi="http://sodipodi.sourceforge.net/DTD/sodipodi-0.dtd"
   xmlns="http://www.w3.org/2000/svg"
   xmlns:svg="http://www.w3.org/2000/svg"><sodipodi:namedview
     id="namedview7"
     pagecolor="#ffffff"
     bordercolor="#666666"
     borderopacity="1.0"
     inkscape:showpageshadow="2"
     inkscape:pageopacity="0.0"
     inkscape:pagecheckerboard="0"
     inkscape:deskcolor="#d1d1d1"
     inkscape:document-units="mm"
     showgrid="false"
     showguides="true"><sodipodi:guide
       position="2060.6175,1381.1132"
       orientation="1,0"
       id="guide4285"
       inkscape:locked="false" /></sodipodi:namedview><defs
     id="defs2"><clipPath
       id="clip0_67_1065"><rect
         width="1366"
         height="185.58501"
         fill="#ffffff"
         id="rect13344"
         x="0"
         y="0" /></clipPath></defs><g
     inkscape:label="Layer 1"
     inkscape:groupmode="layer"
     id="layer1"
     transform="translate(76.420221,-2011.5859)"><g
       id="g20161"><g
         id="g15522"
         inkscape:export-filename="top_grass.svg"
         inkscape:export-xdpi="90.263954"
         inkscape:export-ydpi="90.263954"
         transform="translate(-255.58782)"><g
           style="fill:none"
           id="g13362"
           transform="matrix(0.26458333,0,0,0.26458333,764.95525,2011.5859)"><g
             clip-path="url(#clip0_67_1065)"
             id="g13342"><mask
               id="mask0_67_1065"
               maskUnits="userSpaceOnUse"
               x="0"
               y="0"
               width="1366"
               height="186"><path
                 d="M 1366,0 H 0 v 185.585 h 1366 z"
                 fill="#ffffff"
                 id="path13331" /></mask><g
               mask="url(#mask0_67_1065)"
               id="g13340"><path
                 d="m 448.015,55.7025 c -6.677,1.3807 -17.658,4.6228 -28.159,12.922 -21.644,17.107 -23.99,42.0635 -24.363,47.3175 10.423,0.058 23.185,0.253 37.82,0.754 15.138,0.518 23.298,1.056 28.659,6.816 3.03,3.256 2.819,5.658 5.597,12.028 2.614,5.997 7.037,13.582 15.008,21.528 1.92,-7.463 5.287,-16.923 11.437,-26.864 2.811,-4.545 5.763,-8.477 8.606,-11.831 1.199,4.352 3.138,9.514 6.355,14.901 8.698,14.567 21.526,22.056 28.224,25.335 8.406,-13.345 17.856,-27.162 28.486,-41.241 4.354,-5.767 8.718,-11.329 13.075,-16.69 0,0 -10.805,45.073 2.672,72.673 0,0 27.322,-20.35 35.782,-34.346 l 8.46,-13.996 c 0,0 -11.038,4.629 11.969,22.119 23.007,17.49 17.506,8.086 17.506,8.086 0,0 19.457,-12.443 18.832,-25.01 -0.624,-12.568 0,-38.4697 0,-38.4697 0,0 8.259,20.7147 28.813,47.2707 20.554,26.556 23.63,27.994 23.63,27.994 0,0 39.814,-38.304 41.057,-59.686 0.568,-9.775 0.876,-15.081 1.044,-17.9617 l 0.198,-3.4193 c 15.589,15.584 31.258,33.202 46.338,53.073 3.072,4.048 6.038,8.082 8.9,12.095 10.778,-10.717 21.555,-21.433 32.332,-32.15 1.11,4.165 2.131,8.528 3.025,13.083 2.968,15.104 3.906,29.048 3.769,41.318 0,0 32.151,-9.265 51.763,-24.748 19.611,-15.484 40.377,-28.913 59.989,-75.8371 L 994.45,25.8418 Z"
                 fill="#88a600"
                 id="path13334" /><path
                 d="m 902.681,43.3078 c -12.402,2.6509 -34.781,9.084 -57.177,25.919 -20.029,15.0561 -31.419,31.9272 -37.313,42.2922 0,0 17.611,11.475 50.771,5.779 l 33.159,-5.696 c 0,0 -10.464,19.357 -4.615,42.027 0,0 23.55,-10.993 32.155,-22.823 l 8.607,-11.83 c 3.545,4.798 7.641,9.849 12.367,14.99 8.871,9.654 17.833,17.317 25.905,23.321 6.631,-12.362 14.771,-25.651 24.792,-39.317 4.35,-5.931 8.728,-11.49 13.078,-16.69 0,0 -10.807,45.074 2.67,72.673 0,0 27.32,-20.35 35.78,-34.346 l 8.46,-13.996 c 0,0 -11.04,4.629 11.97,22.119 23.01,17.491 17.51,8.087 17.51,8.087 6.27,-21.16 12.55,-42.32 18.83,-63.4804 0,0 8.26,20.7144 28.81,47.2704 20.56,26.556 23.63,27.994 23.63,27.994 0,0 39.82,-38.303 41.06,-59.685 0.57,-9.7757 0.88,-15.0817 1.04,-17.9624 l 0.2,-3.4193 c 0,0 26.73,45.1337 46.34,53.0727 l 19.61,7.939 c 0,0 9.23,-20.129 18.46,-30.248 l 9.23,-10.119 c 5.9,8.413 11.8,16.957 17.71,25.632 8.06,11.846 15.89,23.593 23.49,35.231 12.25,-19.251 24.5,-38.504 36.75,-57.755 -0.34,-37.4541 -0.69,-74.9082 -1.03,-112.36233 C 1210.85,13.0524 1056.76,28.1801 902.681,43.3078 Z"
                 fill="#88a600"
                 id="path13336" /><path
                 d="M -0.613282,-49.8033 C -0.65311,23.202 -0.692939,96.2073 -0.732056,169.213 c 2.739616,-1.674 6.566686,-4.17 10.868156,-7.537 4.7765,-3.741 12.319,-8.486 17.6467,-17.536 l 7.3939,-12.56 c 0,0 13.1532,24.334 22.9716,41.033 0,0 28.3478,-29.975 39.7088,-47.78 l 11.3599,-17.806 c 0,0 -6.286,45.854 9.866,72.101 0,0 25.18,-22.747 32.214,-37.45 l 7.034,-14.704 c 0,0 -10.528,5.614 14.109,20.929 24.636,15.314 18.228,6.455 18.228,6.455 0,0 18.135,-14.16 16.268,-26.614 -1.868,-12.454 -3.814,-38.295 -3.814,-38.295 0,0 10.275,19.868 33.368,44.431 23.093,24.563 26.299,25.715 26.299,25.715 0,0 35.836,-41.757 34.954,-63.1559 -0.404,-9.7828 -0.622,-15.0936 -0.742,-17.9757 l -0.141,-3.4227 c 10.207,4.1366 41.699,18.3697 51.389,48.6113 1.205,3.762 2.159,8.038 2.594,12.833 11.057,-11.59 22.194,-24.395 33.092,-38.5097 2.824,-3.6573 5.551,-7.2969 8.184,-10.9147 0,0 -3.791,46.1804 7.343,66.4064 10.171,-8.529 26.505,-20.423 49.076,-29.352 16.503,-6.53 24.768,-6.897 54.319,-14.386 15.443,-3.914 28.698,-8.399 39.286,-12.4526 13.438,-5.1451 23.431,-9.8258 26.366,-11.2229 0.465,-0.2216 0.806,-0.3852 0.82,-0.392 8.606,-4.1258 241.804,-30.2738 795.601,-87.73688 V -49.8033 c -202.02,-1.0786 -404.03,-1.678 -606.032,-1.7993 -253.163,-0.1521 -506.333,0.4479 -759.511282,1.7993 z"
                 fill="#88a600"
                 id="path13338" /></g></g></g><g
           style="fill:none"
           id="g13378"
           transform="matrix(0.26458333,0,0,0.26458333,1114.2061,2011.5859)"><g
             clip-path="url(#clip0_67_1065)"
             id="g13376"><mask
               id="mask13366"
               maskUnits="userSpaceOnUse"
               x="0"
               y="0"
               width="1366"
               height="186"><path
                 d="M 1366,0 H 0 v 185.585 h 1366 z"
                 fill="#ffffff"
                 id="path13364" /></mask><g
               mask="url(#mask0_67_1065)"
               id="g13374"><path
                 d="m 448.015,55.7025 c -6.677,1.3807 -17.658,4.6228 -28.159,12.922 -21.644,17.107 -23.99,42.0635 -24.363,47.3175 10.423,0.058 23.185,0.253 37.82,0.754 15.138,0.518 23.298,1.056 28.659,6.816 3.03,3.256 2.819,5.658 5.597,12.028 2.614,5.997 7.037,13.582 15.008,21.528 1.92,-7.463 5.287,-16.923 11.437,-26.864 2.811,-4.545 5.763,-8.477 8.606,-11.831 1.199,4.352 3.138,9.514 6.355,14.901 8.698,14.567 21.526,22.056 28.224,25.335 8.406,-13.345 17.856,-27.162 28.486,-41.241 4.354,-5.767 8.718,-11.329 13.075,-16.69 0,0 -10.805,45.073 2.672,72.673 0,0 27.322,-20.35 35.782,-34.346 l 8.46,-13.996 c 0,0 -11.038,4.629 11.969,22.119 23.007,17.49 17.506,8.086 17.506,8.086 0,0 19.457,-12.443 18.832,-25.01 -0.624,-12.568 0,-38.4697 0,-38.4697 0,0 8.259,20.7147 28.813,47.2707 20.554,26.556 23.63,27.994 23.63,27.994 0,0 39.814,-38.304 41.057,-59.686 0.568,-9.775 0.876,-15.081 1.044,-17.9617 l 0.198,-3.4193 c 15.589,15.584 31.258,33.202 46.338,53.073 3.072,4.048 6.038,8.082 8.9,12.095 10.778,-10.717 21.555,-21.433 32.332,-32.15 1.11,4.165 2.131,8.528 3.025,13.083 2.968,15.104 3.906,29.048 3.769,41.318 0,0 32.151,-9.265 51.763,-24.748 19.611,-15.484 40.377,-28.913 59.989,-75.8371 L 994.45,25.8418 Z"
                 fill="#88a600"
                 id="path13368" /><path
                 d="m 902.681,43.3078 c -12.402,2.6509 -34.781,9.084 -57.177,25.919 -20.029,15.0561 -31.419,31.9272 -37.313,42.2922 0,0 17.611,11.475 50.771,5.779 l 33.159,-5.696 c 0,0 -10.464,19.357 -4.615,42.027 0,0 23.55,-10.993 32.155,-22.823 l 8.607,-11.83 c 3.545,4.798 7.641,9.849 12.367,14.99 8.871,9.654 17.833,17.317 25.905,23.321 6.631,-12.362 14.771,-25.651 24.792,-39.317 4.35,-5.931 8.728,-11.49 13.078,-16.69 0,0 -10.807,45.074 2.67,72.673 0,0 27.32,-20.35 35.78,-34.346 l 8.46,-13.996 c 0,0 -11.04,4.629 11.97,22.119 23.01,17.491 17.51,8.087 17.51,8.087 6.27,-21.16 12.55,-42.32 18.83,-63.4804 0,0 8.26,20.7144 28.81,47.2704 20.56,26.556 23.63,27.994 23.63,27.994 0,0 39.82,-38.303 41.06,-59.685 0.57,-9.7757 0.88,-15.0817 1.04,-17.9624 l 0.2,-3.4193 c 0,0 26.73,45.1337 46.34,53.0727 l 19.61,7.939 c 0,0 9.23,-20.129 18.46,-30.248 l 9.23,-10.119 c 5.9,8.413 11.8,16.957 17.71,25.632 8.06,11.846 15.89,23.593 23.49,35.231 12.25,-19.251 24.5,-38.504 36.75,-57.755 -0.34,-37.4541 -0.69,-74.9082 -1.03,-112.36233 C 1210.85,13.0524 1056.76,28.1801 902.681,43.3078 Z"
                 fill="#88a600"
                 id="path13370" /><path
                 d="M -0.613282,-49.8033 C -0.65311,23.202 -0.692939,96.2073 -0.732056,169.213 c 2.739616,-1.674 6.566686,-4.17 10.868156,-7.537 4.7765,-3.741 12.319,-8.486 17.6467,-17.536 l 7.3939,-12.56 c 0,0 13.1532,24.334 22.9716,41.033 0,0 28.3478,-29.975 39.7088,-47.78 l 11.3599,-17.806 c 0,0 -6.286,45.854 9.866,72.101 0,0 25.18,-22.747 32.214,-37.45 l 7.034,-14.704 c 0,0 -10.528,5.614 14.109,20.929 24.636,15.314 18.228,6.455 18.228,6.455 0,0 18.135,-14.16 16.268,-26.614 -1.868,-12.454 -3.814,-38.295 -3.814,-38.295 0,0 10.275,19.868 33.368,44.431 23.093,24.563 26.299,25.715 26.299,25.715 0,0 35.836,-41.757 34.954,-63.1559 -0.404,-9.7828 -0.622,-15.0936 -0.742,-17.9757 l -0.141,-3.4227 c 10.207,4.1366 41.699,18.3697 51.389,48.6113 1.205,3.762 2.159,8.038 2.594,12.833 11.057,-11.59 22.194,-24.395 33.092,-38.5097 2.824,-3.6573 5.551,-7.2969 8.184,-10.9147 0,0 -3.791,46.1804 7.343,66.4064 10.171,-8.529 26.505,-20.423 49.076,-29.352 16.503,-6.53 24.768,-6.897 54.319,-14.386 15.443,-3.914 28.698,-8.399 39.286,-12.4526 13.438,-5.1451 23.431,-9.8258 26.366,-11.2229 0.465,-0.2216 0.806,-0.3852 0.82,-0.392 8.606,-4.1258 241.804,-30.2738 795.601,-87.73688 V -49.8033 c -202.02,-1.0786 -404.03,-1.678 -606.032,-1.7993 -253.163,-0.1521 -506.333,0.4479 -759.511282,1.7993 z"
                 fill="#88a600"
                 id="path13372" /></g></g></g><g
           style="fill:none"
           id="g15496"
           transform="matrix(0.26458333,0,0,0.26458333,1304.7073,2011.5859)"><g
             clip-path="url(#clip0_67_1065)"
             id="g15494"><mask
               id="mask15484"
               maskUnits="userSpaceOnUse"
               x="0"
               y="0"
               width="1366"
               height="186"><path
                 d="M 1366,0 H 0 v 185.585 h 1366 z"
                 fill="#ffffff"
                 id="path15482" /></mask><g
               mask="url(#mask0_67_1065)"
               id="g15492"><path
                 d="m 448.015,55.7025 c -6.677,1.3807 -17.658,4.6228 -28.159,12.922 -21.644,17.107 -23.99,42.0635 -24.363,47.3175 10.423,0.058 23.185,0.253 37.82,0.754 15.138,0.518 23.298,1.056 28.659,6.816 3.03,3.256 2.819,5.658 5.597,12.028 2.614,5.997 7.037,13.582 15.008,21.528 1.92,-7.463 5.287,-16.923 11.437,-26.864 2.811,-4.545 5.763,-8.477 8.606,-11.831 1.199,4.352 3.138,9.514 6.355,14.901 8.698,14.567 21.526,22.056 28.224,25.335 8.406,-13.345 17.856,-27.162 28.486,-41.241 4.354,-5.767 8.718,-11.329 13.075,-16.69 0,0 -10.805,45.073 2.672,72.673 0,0 27.322,-20.35 35.782,-34.346 l 8.46,-13.996 c 0,0 -11.038,4.629 11.969,22.119 23.007,17.49 17.506,8.086 17.506,8.086 0,0 19.457,-12.443 18.832,-25.01 -0.624,-12.568 0,-38.4697 0,-38.4697 0,0 8.259,20.7147 28.813,47.2707 20.554,26.556 23.63,27.994 23.63,27.994 0,0 39.814,-38.304 41.057,-59.686 0.568,-9.775 0.876,-15.081 1.044,-17.9617 l 0.198,-3.4193 c 15.589,15.584 31.258,33.202 46.338,53.073 3.072,4.048 6.038,8.082 8.9,12.095 10.778,-10.717 21.555,-21.433 32.332,-32.15 1.11,4.165 2.131,8.528 3.025,13.083 2.968,15.104 3.906,29.048 3.769,41.318 0,0 32.151,-9.265 51.763,-24.748 19.611,-15.484 40.377,-28.913 59.989,-75.8371 L 994.45,25.8418 Z"
                 fill="#88a600"
                 id="path15486" /><path
                 d="m 902.681,43.3078 c -12.402,2.6509 -34.781,9.084 -57.177,25.919 -20.029,15.0561 -31.419,31.9272 -37.313,42.2922 0,0 17.611,11.475 50.771,5.779 l 33.159,-5.696 c 0,0 -10.464,19.357 -4.615,42.027 0,0 23.55,-10.993 32.155,-22.823 l 8.607,-11.83 c 3.545,4.798 7.641,9.849 12.367,14.99 8.871,9.654 17.833,17.317 25.905,23.321 6.631,-12.362 14.771,-25.651 24.792,-39.317 4.35,-5.931 8.728,-11.49 13.078,-16.69 0,0 -10.807,45.074 2.67,72.673 0,0 27.32,-20.35 35.78,-34.346 l 8.46,-13.996 c 0,0 -11.04,4.629 11.97,22.119 23.01,17.491 17.51,8.087 17.51,8.087 6.27,-21.16 12.55,-42.32 18.83,-63.4804 0,0 8.26,20.7144 28.81,47.2704 20.56,26.556 23.63,27.994 23.63,27.994 0,0 39.82,-38.303 41.06,-59.685 0.57,-9.7757 0.88,-15.0817 1.04,-17.9624 l 0.2,-3.4193 c 0,0 26.73,45.1337 46.34,53.0727 l 19.61,7.939 c 0,0 9.23,-20.129 18.46,-30.248 l 9.23,-10.119 c 5.9,8.413 11.8,16.957 17.71,25.632 8.06,11.846 15.89,23.593 23.49,35.231 12.25,-19.251 24.5,-38.504 36.75,-57.755 -0.34,-37.4541 -0.69,-74.9082 -1.03,-112.36233 C 1210.85,13.0524 1056.76,28.1801 902.681,43.3078 Z"
                 fill="#88a600"
                 id="path15488" /><path
                 d="M -0.613282,-49.8033 C -0.65311,23.202 -0.692939,96.2073 -0.732056,169.213 c 2.739616,-1.674 6.566686,-4.17 10.868156,-7.537 4.7765,-3.741 12.319,-8.486 17.6467,-17.536 l 7.3939,-12.56 c 0,0 13.1532,24.334 22.9716,41.033 0,0 28.3478,-29.975 39.7088,-47.78 l 11.3599,-17.806 c 0,0 -6.286,45.854 9.866,72.101 0,0 25.18,-22.747 32.214,-37.45 l 7.034,-14.704 c 0,0 -10.528,5.614 14.109,20.929 24.636,15.314 18.228,6.455 18.228,6.455 0,0 18.135,-14.16 16.268,-26.614 -1.868,-12.454 -3.814,-38.295 -3.814,-38.295 0,0 10.275,19.868 33.368,44.431 23.093,24.563 26.299,25.715 26.299,25.715 0,0 35.836,-41.757 34.954,-63.1559 -0.404,-9.7828 -0.622,-15.0936 -0.742,-17.9757 l -0.141,-3.4227 c 10.207,4.1366 41.699,18.3697 51.389,48.6113 1.205,3.762 2.159,8.038 2.594,12.833 11.057,-11.59 22.194,-24.395 33.092,-38.5097 2.824,-3.6573 5.551,-7.2969 8.184,-10.9147 0,0 -3.791,46.1804 7.343,66.4064 10.171,-8.529 26.505,-20.423 49.076,-29.352 16.503,-6.53 24.768,-6.897 54.319,-14.386 15.443,-3.914 28.698,-8.399 39.286,-12.4526 13.438,-5.1451 23.431,-9.8258 26.366,-11.2229 0.465,-0.2216 0.806,-0.3852 0.82,-0.392 8.606,-4.1258 241.804,-30.2738 795.601,-87.73688 V -49.8033 c -202.02,-1.0786 -404.03,-1.678 -606.032,-1.7993 -253.163,-0.1521 -506.333,0.4479 -759.511282,1.7993 z"
                 fill="#88a600"
                 id="path15490" /></g></g></g></g><g
         id="g17650"
         inkscape:export-filename="top_grass.svg"
         inkscape:export-xdpi="90.263954"
         inkscape:export-ydpi="90.263954"
         transform="translate(-841.37547)"><g
           style="fill:none"
           id="g17616"
           transform="matrix(0.26458333,0,0,0.26458333,764.95525,2011.5859)"><g
             clip-path="url(#clip0_67_1065)"
             id="g17614"><mask
               id="mask17604"
               maskUnits="userSpaceOnUse"
               x="0"
               y="0"
               width="1366"
               height="186"><path
                 d="M 1366,0 H 0 v 185.585 h 1366 z"
                 fill="#ffffff"
                 id="path17602" /></mask><g
               mask="url(#mask0_67_1065)"
               id="g17612"><path
                 d="m 448.015,55.7025 c -6.677,1.3807 -17.658,4.6228 -28.159,12.922 -21.644,17.107 -23.99,42.0635 -24.363,47.3175 10.423,0.058 23.185,0.253 37.82,0.754 15.138,0.518 23.298,1.056 28.659,6.816 3.03,3.256 2.819,5.658 5.597,12.028 2.614,5.997 7.037,13.582 15.008,21.528 1.92,-7.463 5.287,-16.923 11.437,-26.864 2.811,-4.545 5.763,-8.477 8.606,-11.831 1.199,4.352 3.138,9.514 6.355,14.901 8.698,14.567 21.526,22.056 28.224,25.335 8.406,-13.345 17.856,-27.162 28.486,-41.241 4.354,-5.767 8.718,-11.329 13.075,-16.69 0,0 -10.805,45.073 2.672,72.673 0,0 27.322,-20.35 35.782,-34.346 l 8.46,-13.996 c 0,0 -11.038,4.629 11.969,22.119 23.007,17.49 17.506,8.086 17.506,8.086 0,0 19.457,-12.443 18.832,-25.01 -0.624,-12.568 0,-38.4697 0,-38.4697 0,0 8.259,20.7147 28.813,47.2707 20.554,26.556 23.63,27.994 23.63,27.994 0,0 39.814,-38.304 41.057,-59.686 0.568,-9.775 0.876,-15.081 1.044,-17.9617 l 0.198,-3.4193 c 15.589,15.584 31.258,33.202 46.338,53.073 3.072,4.048 6.038,8.082 8.9,12.095 10.778,-10.717 21.555,-21.433 32.332,-32.15 1.11,4.165 2.131,8.528 3.025,13.083 2.968,15.104 3.906,29.048 3.769,41.318 0,0 32.151,-9.265 51.763,-24.748 19.611,-15.484 40.377,-28.913 59.989,-75.8371 L 994.45,25.8418 Z"
                 fill="#88a600"
                 id="path17606" /><path
                 d="m 902.681,43.3078 c -12.402,2.6509 -34.781,9.084 -57.177,25.919 -20.029,15.0561 -31.419,31.9272 -37.313,42.2922 0,0 17.611,11.475 50.771,5.779 l 33.159,-5.696 c 0,0 -10.464,19.357 -4.615,42.027 0,0 23.55,-10.993 32.155,-22.823 l 8.607,-11.83 c 3.545,4.798 7.641,9.849 12.367,14.99 8.871,9.654 17.833,17.317 25.905,23.321 6.631,-12.362 14.771,-25.651 24.792,-39.317 4.35,-5.931 8.728,-11.49 13.078,-16.69 0,0 -10.807,45.074 2.67,72.673 0,0 27.32,-20.35 35.78,-34.346 l 8.46,-13.996 c 0,0 -11.04,4.629 11.97,22.119 23.01,17.491 17.51,8.087 17.51,8.087 6.27,-21.16 12.55,-42.32 18.83,-63.4804 0,0 8.26,20.7144 28.81,47.2704 20.56,26.556 23.63,27.994 23.63,27.994 0,0 39.82,-38.303 41.06,-59.685 0.57,-9.7757 0.88,-15.0817 1.04,-17.9624 l 0.2,-3.4193 c 0,0 26.73,45.1337 46.34,53.0727 l 19.61,7.939 c 0,0 9.23,-20.129 18.46,-30.248 l 9.23,-10.119 c 5.9,8.413 11.8,16.957 17.71,25.632 8.06,11.846 15.89,23.593 23.49,35.231 12.25,-19.251 24.5,-38.504 36.75,-57.755 -0.34,-37.4541 -0.69,-74.9082 -1.03,-112.36233 C 1210.85,13.0524 1056.76,28.1801 902.681,43.3078 Z"
                 fill="#88a600"
                 id="path17608" /><path
                 d="M -0.613282,-49.8033 C -0.65311,23.202 -0.692939,96.2073 -0.732056,169.213 c 2.739616,-1.674 6.566686,-4.17 10.868156,-7.537 4.7765,-3.741 12.319,-8.486 17.6467,-17.536 l 7.3939,-12.56 c 0,0 13.1532,24.334 22.9716,41.033 0,0 28.3478,-29.975 39.7088,-47.78 l 11.3599,-17.806 c 0,0 -6.286,45.854 9.866,72.101 0,0 25.18,-22.747 32.214,-37.45 l 7.034,-14.704 c 0,0 -10.528,5.614 14.109,20.929 24.636,15.314 18.228,6.455 18.228,6.455 0,0 18.135,-14.16 16.268,-26.614 -1.868,-12.454 -3.814,-38.295 -3.814,-38.295 0,0 10.275,19.868 33.368,44.431 23.093,24.563 26.299,25.715 26.299,25.715 0,0 35.836,-41.757 34.954,-63.1559 -0.404,-9.7828 -0.622,-15.0936 -0.742,-17.9757 l -0.141,-3.4227 c 10.207,4.1366 41.699,18.3697 51.389,48.6113 1.205,3.762 2.159,8.038 2.594,12.833 11.057,-11.59 22.194,-24.395 33.092,-38.5097 2.824,-3.6573 5.551,-7.2969 8.184,-10.9147 0,0 -3.791,46.1804 7.343,66.4064 10.171,-8.529 26.505,-20.423 49.076,-29.352 16.503,-6.53 24.768,-6.897 54.319,-14.386 15.443,-3.914 28.698,-8.399 39.286,-12.4526 13.438,-5.1451 23.431,-9.8258 26.366,-11.2229 0.465,-0.2216 0.806,-0.3852 0.82,-0.392 8.606,-4.1258 241.804,-30.2738 795.601,-87.73688 V -49.8033 c -202.02,-1.0786 -404.03,-1.678 -606.032,-1.7993 -253.163,-0.1521 -506.333,0.4479 -759.511282,1.7993 z"
                 fill="#88a600"
                 id="path17610" /></g></g></g><g
           style="fill:none"
           id="g17632"
           transform="matrix(0.26458333,0,0,0.26458333,1114.2061,2011.5859)"><g
             clip-path="url(#clip0_67_1065)"
             id="g17630"><mask
               id="mask17620"
               maskUnits="userSpaceOnUse"
               x="0"
               y="0"
               width="1366"
               height="186"><path
                 d="M 1366,0 H 0 v 185.585 h 1366 z"
                 fill="#ffffff"
                 id="path17618" /></mask><g
               mask="url(#mask0_67_1065)"
               id="g17628"><path
                 d="m 448.015,55.7025 c -6.677,1.3807 -17.658,4.6228 -28.159,12.922 -21.644,17.107 -23.99,42.0635 -24.363,47.3175 10.423,0.058 23.185,0.253 37.82,0.754 15.138,0.518 23.298,1.056 28.659,6.816 3.03,3.256 2.819,5.658 5.597,12.028 2.614,5.997 7.037,13.582 15.008,21.528 1.92,-7.463 5.287,-16.923 11.437,-26.864 2.811,-4.545 5.763,-8.477 8.606,-11.831 1.199,4.352 3.138,9.514 6.355,14.901 8.698,14.567 21.526,22.056 28.224,25.335 8.406,-13.345 17.856,-27.162 28.486,-41.241 4.354,-5.767 8.718,-11.329 13.075,-16.69 0,0 -10.805,45.073 2.672,72.673 0,0 27.322,-20.35 35.782,-34.346 l 8.46,-13.996 c 0,0 -11.038,4.629 11.969,22.119 23.007,17.49 17.506,8.086 17.506,8.086 0,0 19.457,-12.443 18.832,-25.01 -0.624,-12.568 0,-38.4697 0,-38.4697 0,0 8.259,20.7147 28.813,47.2707 20.554,26.556 23.63,27.994 23.63,27.994 0,0 39.814,-38.304 41.057,-59.686 0.568,-9.775 0.876,-15.081 1.044,-17.9617 l 0.198,-3.4193 c 15.589,15.584 31.258,33.202 46.338,53.073 3.072,4.048 6.038,8.082 8.9,12.095 10.778,-10.717 21.555,-21.433 32.332,-32.15 1.11,4.165 2.131,8.528 3.025,13.083 2.968,15.104 3.906,29.048 3.769,41.318 0,0 32.151,-9.265 51.763,-24.748 19.611,-15.484 40.377,-28.913 59.989,-75.8371 L 994.45,25.8418 Z"
                 fill="#88a600"
                 id="path17622" /><path
                 d="m 902.681,43.3078 c -12.402,2.6509 -34.781,9.084 -57.177,25.919 -20.029,15.0561 -31.419,31.9272 -37.313,42.2922 0,0 17.611,11.475 50.771,5.779 l 33.159,-5.696 c 0,0 -10.464,19.357 -4.615,42.027 0,0 23.55,-10.993 32.155,-22.823 l 8.607,-11.83 c 3.545,4.798 7.641,9.849 12.367,14.99 8.871,9.654 17.833,17.317 25.905,23.321 6.631,-12.362 14.771,-25.651 24.792,-39.317 4.35,-5.931 8.728,-11.49 13.078,-16.69 0,0 -10.807,45.074 2.67,72.673 0,0 27.32,-20.35 35.78,-34.346 l 8.46,-13.996 c 0,0 -11.04,4.629 11.97,22.119 23.01,17.491 17.51,8.087 17.51,8.087 6.27,-21.16 12.55,-42.32 18.83,-63.4804 0,0 8.26,20.7144 28.81,47.2704 20.56,26.556 23.63,27.994 23.63,27.994 0,0 39.82,-38.303 41.06,-59.685 0.57,-9.7757 0.88,-15.0817 1.04,-17.9624 l 0.2,-3.4193 c 0,0 26.73,45.1337 46.34,53.0727 l 19.61,7.939 c 0,0 9.23,-20.129 18.46,-30.248 l 9.23,-10.119 c 5.9,8.413 11.8,16.957 17.71,25.632 8.06,11.846 15.89,23.593 23.49,35.231 12.25,-19.251 24.5,-38.504 36.75,-57.755 -0.34,-37.4541 -0.69,-74.9082 -1.03,-112.36233 C 1210.85,13.0524 1056.76,28.1801 902.681,43.3078 Z"
                 fill="#88a600"
                 id="path17624" /><path
                 d="M -0.613282,-49.8033 C -0.65311,23.202 -0.692939,96.2073 -0.732056,169.213 c 2.739616,-1.674 6.566686,-4.17 10.868156,-7.537 4.7765,-3.741 12.319,-8.486 17.6467,-17.536 l 7.3939,-12.56 c 0,0 13.1532,24.334 22.9716,41.033 0,0 28.3478,-29.975 39.7088,-47.78 l 11.3599,-17.806 c 0,0 -6.286,45.854 9.866,72.101 0,0 25.18,-22.747 32.214,-37.45 l 7.034,-14.704 c 0,0 -10.528,5.614 14.109,20.929 24.636,15.314 18.228,6.455 18.228,6.455 0,0 18.135,-14.16 16.268,-26.614 -1.868,-12.454 -3.814,-38.295 -3.814,-38.295 0,0 10.275,19.868 33.368,44.431 23.093,24.563 26.299,25.715 26.299,25.715 0,0 35.836,-41.757 34.954,-63.1559 -0.404,-9.7828 -0.622,-15.0936 -0.742,-17.9757 l -0.141,-3.4227 c 10.207,4.1366 41.699,18.3697 51.389,48.6113 1.205,3.762 2.159,8.038 2.594,12.833 11.057,-11.59 22.194,-24.395 33.092,-38.5097 2.824,-3.6573 5.551,-7.2969 8.184,-10.9147 0,0 -3.791,46.1804 7.343,66.4064 10.171,-8.529 26.505,-20.423 49.076,-29.352 16.503,-6.53 24.768,-6.897 54.319,-14.386 15.443,-3.914 28.698,-8.399 39.286,-12.4526 13.438,-5.1451 23.431,-9.8258 26.366,-11.2229 0.465,-0.2216 0.806,-0.3852 0.82,-0.392 8.606,-4.1258 241.804,-30.2738 795.601,-87.73688 V -49.8033 c -202.02,-1.0786 -404.03,-1.678 -606.032,-1.7993 -253.163,-0.1521 -506.333,0.4479 -759.511282,1.7993 z"
                 fill="#88a600"
                 id="path17626" /></g></g></g><g
           style="fill:none"
           id="g17648"
           transform="matrix(0.26458333,0,0,0.26458333,1304.7073,2011.5859)"><g
             clip-path="url(#clip0_67_1065)"
             id="g17646"><mask
               id="mask17636"
               maskUnits="userSpaceOnUse"
               x="0"
               y="0"
               width="1366"
               height="186"><path
                 d="M 1366,0 H 0 v 185.585 h 1366 z"
                 fill="#ffffff"
                 id="path17634" /></mask><g
               mask="url(#mask0_67_1065)"
               id="g17644"><path
                 d="m 448.015,55.7025 c -6.677,1.3807 -17.658,4.6228 -28.159,12.922 -21.644,17.107 -23.99,42.0635 -24.363,47.3175 10.423,0.058 23.185,0.253 37.82,0.754 15.138,0.518 23.298,1.056 28.659,6.816 3.03,3.256 2.819,5.658 5.597,12.028 2.614,5.997 7.037,13.582 15.008,21.528 1.92,-7.463 5.287,-16.923 11.437,-26.864 2.811,-4.545 5.763,-8.477 8.606,-11.831 1.199,4.352 3.138,9.514 6.355,14.901 8.698,14.567 21.526,22.056 28.224,25.335 8.406,-13.345 17.856,-27.162 28.486,-41.241 4.354,-5.767 8.718,-11.329 13.075,-16.69 0,0 -10.805,45.073 2.672,72.673 0,0 27.322,-20.35 35.782,-34.346 l 8.46,-13.996 c 0,0 -11.038,4.629 11.969,22.119 23.007,17.49 17.506,8.086 17.506,8.086 0,0 19.457,-12.443 18.832,-25.01 -0.624,-12.568 0,-38.4697 0,-38.4697 0,0 8.259,20.7147 28.813,47.2707 20.554,26.556 23.63,27.994 23.63,27.994 0,0 39.814,-38.304 41.057,-59.686 0.568,-9.775 0.876,-15.081 1.044,-17.9617 l 0.198,-3.4193 c 15.589,15.584 31.258,33.202 46.338,53.073 3.072,4.048 6.038,8.082 8.9,12.095 10.778,-10.717 21.555,-21.433 32.332,-32.15 1.11,4.165 2.131,8.528 3.025,13.083 2.968,15.104 3.906,29.048 3.769,41.318 0,0 32.151,-9.265 51.763,-24.748 19.611,-15.484 40.377,-28.913 59.989,-75.8371 L 994.45,25.8418 Z"
                 fill="#88a600"
                 id="path17638" /><path
                 d="m 902.681,43.3078 c -12.402,2.6509 -34.781,9.084 -57.177,25.919 -20.029,15.0561 -31.419,31.9272 -37.313,42.2922 0,0 17.611,11.475 50.771,5.779 l 33.159,-5.696 c 0,0 -10.464,19.357 -4.615,42.027 0,0 23.55,-10.993 32.155,-22.823 l 8.607,-11.83 c 3.545,4.798 7.641,9.849 12.367,14.99 8.871,9.654 17.833,17.317 25.905,23.321 6.631,-12.362 14.771,-25.651 24.792,-39.317 4.35,-5.931 8.728,-11.49 13.078,-16.69 0,0 -10.807,45.074 2.67,72.673 0,0 27.32,-20.35 35.78,-34.346 l 8.46,-13.996 c 0,0 -11.04,4.629 11.97,22.119 23.01,17.491 17.51,8.087 17.51,8.087 6.27,-21.16 12.55,-42.32 18.83,-63.4804 0,0 8.26,20.7144 28.81,47.2704 20.56,26.556 23.63,27.994 23.63,27.994 0,0 39.82,-38.303 41.06,-59.685 0.57,-9.7757 0.88,-15.0817 1.04,-17.9624 l 0.2,-3.4193 c 0,0 26.73,45.1337 46.34,53.0727 l 19.61,7.939 c 0,0 9.23,-20.129 18.46,-30.248 l 9.23,-10.119 c 5.9,8.413 11.8,16.957 17.71,25.632 8.06,11.846 15.89,23.593 23.49,35.231 12.25,-19.251 24.5,-38.504 36.75,-57.755 -0.34,-37.4541 -0.69,-74.9082 -1.03,-112.36233 C 1210.85,13.0524 1056.76,28.1801 902.681,43.3078 Z"
                 fill="#88a600"
                 id="path17640" /><path
                 d="M -0.613282,-49.8033 C -0.65311,23.202 -0.692939,96.2073 -0.732056,169.213 c 2.739616,-1.674 6.566686,-4.17 10.868156,-7.537 4.7765,-3.741 12.319,-8.486 17.6467,-17.536 l 7.3939,-12.56 c 0,0 13.1532,24.334 22.9716,41.033 0,0 28.3478,-29.975 39.7088,-47.78 l 11.3599,-17.806 c 0,0 -6.286,45.854 9.866,72.101 0,0 25.18,-22.747 32.214,-37.45 l 7.034,-14.704 c 0,0 -10.528,5.614 14.109,20.929 24.636,15.314 18.228,6.455 18.228,6.455 0,0 18.135,-14.16 16.268,-26.614 -1.868,-12.454 -3.814,-38.295 -3.814,-38.295 0,0 10.275,19.868 33.368,44.431 23.093,24.563 26.299,25.715 26.299,25.715 0,0 35.836,-41.757 34.954,-63.1559 -0.404,-9.7828 -0.622,-15.0936 -0.742,-17.9757 l -0.141,-3.4227 c 10.207,4.1366 41.699,18.3697 51.389,48.6113 1.205,3.762 2.159,8.038 2.594,12.833 11.057,-11.59 22.194,-24.395 33.092,-38.5097 2.824,-3.6573 5.551,-7.2969 8.184,-10.9147 0,0 -3.791,46.1804 7.343,66.4064 10.171,-8.529 26.505,-20.423 49.076,-29.352 16.503,-6.53 24.768,-6.897 54.319,-14.386 15.443,-3.914 28.698,-8.399 39.286,-12.4526 13.438,-5.1451 23.431,-9.8258 26.366,-11.2229 0.465,-0.2216 0.806,-0.3852 0.82,-0.392 8.606,-4.1258 241.804,-30.2738 795.601,-87.73688 V -49.8033 c -202.02,-1.0786 -404.03,-1.678 -606.032,-1.7993 -253.163,-0.1521 -506.333,0.4479 -759.511282,1.7993 z"
                 fill="#88a600"
                 id="path17642" /></g></g></g></g><g
         id="g20032"
         inkscape:export-filename="top_grass.svg"
         inkscape:export-xdpi="90.263954"
         inkscape:export-ydpi="90.263954"
         transform="matrix(-1,0,0,1,2593.5397,0)"><g
           style="fill:none"
           id="g19998"
           transform="matrix(0.26458333,0,0,0.26458333,764.95525,2011.5859)"><g
             clip-path="url(#clip0_67_1065)"
             id="g19996"><mask
               id="mask19986"
               maskUnits="userSpaceOnUse"
               x="0"
               y="0"
               width="1366"
               height="186"><path
                 d="M 1366,0 H 0 v 185.585 h 1366 z"
                 fill="#ffffff"
                 id="path19984" /></mask><g
               mask="url(#mask0_67_1065)"
               id="g19994"><path
                 d="m 448.015,55.7025 c -6.677,1.3807 -17.658,4.6228 -28.159,12.922 -21.644,17.107 -23.99,42.0635 -24.363,47.3175 10.423,0.058 23.185,0.253 37.82,0.754 15.138,0.518 23.298,1.056 28.659,6.816 3.03,3.256 2.819,5.658 5.597,12.028 2.614,5.997 7.037,13.582 15.008,21.528 1.92,-7.463 5.287,-16.923 11.437,-26.864 2.811,-4.545 5.763,-8.477 8.606,-11.831 1.199,4.352 3.138,9.514 6.355,14.901 8.698,14.567 21.526,22.056 28.224,25.335 8.406,-13.345 17.856,-27.162 28.486,-41.241 4.354,-5.767 8.718,-11.329 13.075,-16.69 0,0 -10.805,45.073 2.672,72.673 0,0 27.322,-20.35 35.782,-34.346 l 8.46,-13.996 c 0,0 -11.038,4.629 11.969,22.119 23.007,17.49 17.506,8.086 17.506,8.086 0,0 19.457,-12.443 18.832,-25.01 -0.624,-12.568 0,-38.4697 0,-38.4697 0,0 8.259,20.7147 28.813,47.2707 20.554,26.556 23.63,27.994 23.63,27.994 0,0 39.814,-38.304 41.057,-59.686 0.568,-9.775 0.876,-15.081 1.044,-17.9617 l 0.198,-3.4193 c 15.589,15.584 31.258,33.202 46.338,53.073 3.072,4.048 6.038,8.082 8.9,12.095 10.778,-10.717 21.555,-21.433 32.332,-32.15 1.11,4.165 2.131,8.528 3.025,13.083 2.968,15.104 3.906,29.048 3.769,41.318 0,0 32.151,-9.265 51.763,-24.748 19.611,-15.484 40.377,-28.913 59.989,-75.8371 L 994.45,25.8418 Z"
                 fill="#88a600"
                 id="path19988" /><path
                 d="m 902.681,43.3078 c -12.402,2.6509 -34.781,9.084 -57.177,25.919 -20.029,15.0561 -31.419,31.9272 -37.313,42.2922 0,0 17.611,11.475 50.771,5.779 l 33.159,-5.696 c 0,0 -10.464,19.357 -4.615,42.027 0,0 23.55,-10.993 32.155,-22.823 l 8.607,-11.83 c 3.545,4.798 7.641,9.849 12.367,14.99 8.871,9.654 17.833,17.317 25.905,23.321 6.631,-12.362 14.771,-25.651 24.792,-39.317 4.35,-5.931 8.728,-11.49 13.078,-16.69 0,0 -10.807,45.074 2.67,72.673 0,0 27.32,-20.35 35.78,-34.346 l 8.46,-13.996 c 0,0 -11.04,4.629 11.97,22.119 23.01,17.491 17.51,8.087 17.51,8.087 6.27,-21.16 12.55,-42.32 18.83,-63.4804 0,0 8.26,20.7144 28.81,47.2704 20.56,26.556 23.63,27.994 23.63,27.994 0,0 39.82,-38.303 41.06,-59.685 0.57,-9.7757 0.88,-15.0817 1.04,-17.9624 l 0.2,-3.4193 c 0,0 26.73,45.1337 46.34,53.0727 l 19.61,7.939 c 0,0 9.23,-20.129 18.46,-30.248 l 9.23,-10.119 c 5.9,8.413 11.8,16.957 17.71,25.632 8.06,11.846 15.89,23.593 23.49,35.231 12.25,-19.251 24.5,-38.504 36.75,-57.755 -0.34,-37.4541 -0.69,-74.9082 -1.03,-112.36233 C 1210.85,13.0524 1056.76,28.1801 902.681,43.3078 Z"
                 fill="#88a600"
                 id="path19990" /><path
                 d="M -0.613282,-49.8033 C -0.65311,23.202 -0.692939,96.2073 -0.732056,169.213 c 2.739616,-1.674 6.566686,-4.17 10.868156,-7.537 4.7765,-3.741 12.319,-8.486 17.6467,-17.536 l 7.3939,-12.56 c 0,0 13.1532,24.334 22.9716,41.033 0,0 28.3478,-29.975 39.7088,-47.78 l 11.3599,-17.806 c 0,0 -6.286,45.854 9.866,72.101 0,0 25.18,-22.747 32.214,-37.45 l 7.034,-14.704 c 0,0 -10.528,5.614 14.109,20.929 24.636,15.314 18.228,6.455 18.228,6.455 0,0 18.135,-14.16 16.268,-26.614 -1.868,-12.454 -3.814,-38.295 -3.814,-38.295 0,0 10.275,19.868 33.368,44.431 23.093,24.563 26.299,25.715 26.299,25.715 0,0 35.836,-41.757 34.954,-63.1559 -0.404,-9.7828 -0.622,-15.0936 -0.742,-17.9757 l -0.141,-3.4227 c 10.207,4.1366 41.699,18.3697 51.389,48.6113 1.205,3.762 2.159,8.038 2.594,12.833 11.057,-11.59 22.194,-24.395 33.092,-38.5097 2.824,-3.6573 5.551,-7.2969 8.184,-10.9147 0,0 -3.791,46.1804 7.343,66.4064 10.171,-8.529 26.505,-20.423 49.076,-29.352 16.503,-6.53 24.768,-6.897 54.319,-14.386 15.443,-3.914 28.698,-8.399 39.286,-12.4526 13.438,-5.1451 23.431,-9.8258 26.366,-11.2229 0.465,-0.2216 0.806,-0.3852 0.82,-0.392 8.606,-4.1258 241.804,-30.2738 795.601,-87.73688 V -49.8033 c -202.02,-1.0786 -404.03,-1.678 -606.032,-1.7993 -253.163,-0.1521 -506.333,0.4479 -759.511282,1.7993 z"
                 fill="#88a600"
                 id="path19992" /></g></g></g><g
           style="fill:none"
           id="g20014"
           transform="matrix(0.26458333,0,0,0.26458333,1114.2061,2011.5859)"><g
             clip-path="url(#clip0_67_1065)"
             id="g20012"><mask
               id="mask20002"
               maskUnits="userSpaceOnUse"
               x="0"
               y="0"
               width="1366"
               height="186"><path
                 d="M 1366,0 H 0 v 185.585 h 1366 z"
                 fill="#ffffff"
                 id="path20000" /></mask><g
               mask="url(#mask0_67_1065)"
               id="g20010"><path
                 d="m 448.015,55.7025 c -6.677,1.3807 -17.658,4.6228 -28.159,12.922 -21.644,17.107 -23.99,42.0635 -24.363,47.3175 10.423,0.058 23.185,0.253 37.82,0.754 15.138,0.518 23.298,1.056 28.659,6.816 3.03,3.256 2.819,5.658 5.597,12.028 2.614,5.997 7.037,13.582 15.008,21.528 1.92,-7.463 5.287,-16.923 11.437,-26.864 2.811,-4.545 5.763,-8.477 8.606,-11.831 1.199,4.352 3.138,9.514 6.355,14.901 8.698,14.567 21.526,22.056 28.224,25.335 8.406,-13.345 17.856,-27.162 28.486,-41.241 4.354,-5.767 8.718,-11.329 13.075,-16.69 0,0 -10.805,45.073 2.672,72.673 0,0 27.322,-20.35 35.782,-34.346 l 8.46,-13.996 c 0,0 -11.038,4.629 11.969,22.119 23.007,17.49 17.506,8.086 17.506,8.086 0,0 19.457,-12.443 18.832,-25.01 -0.624,-12.568 0,-38.4697 0,-38.4697 0,0 8.259,20.7147 28.813,47.2707 20.554,26.556 23.63,27.994 23.63,27.994 0,0 39.814,-38.304 41.057,-59.686 0.568,-9.775 0.876,-15.081 1.044,-17.9617 l 0.198,-3.4193 c 15.589,15.584 31.258,33.202 46.338,53.073 3.072,4.048 6.038,8.082 8.9,12.095 10.778,-10.717 21.555,-21.433 32.332,-32.15 1.11,4.165 2.131,8.528 3.025,13.083 2.968,15.104 3.906,29.048 3.769,41.318 0,0 32.151,-9.265 51.763,-24.748 19.611,-15.484 40.377,-28.913 59.989,-75.8371 L 994.45,25.8418 Z"
                 fill="#88a600"
                 id="path20004" /><path
                 d="m 902.681,43.3078 c -12.402,2.6509 -34.781,9.084 -57.177,25.919 -20.029,15.0561 -31.419,31.9272 -37.313,42.2922 0,0 17.611,11.475 50.771,5.779 l 33.159,-5.696 c 0,0 -10.464,19.357 -4.615,42.027 0,0 23.55,-10.993 32.155,-22.823 l 8.607,-11.83 c 3.545,4.798 7.641,9.849 12.367,14.99 8.871,9.654 17.833,17.317 25.905,23.321 6.631,-12.362 14.771,-25.651 24.792,-39.317 4.35,-5.931 8.728,-11.49 13.078,-16.69 0,0 -10.807,45.074 2.67,72.673 0,0 27.32,-20.35 35.78,-34.346 l 8.46,-13.996 c 0,0 -11.04,4.629 11.97,22.119 23.01,17.491 17.51,8.087 17.51,8.087 6.27,-21.16 12.55,-42.32 18.83,-63.4804 0,0 8.26,20.7144 28.81,47.2704 20.56,26.556 23.63,27.994 23.63,27.994 0,0 39.82,-38.303 41.06,-59.685 0.57,-9.7757 0.88,-15.0817 1.04,-17.9624 l 0.2,-3.4193 c 0,0 26.73,45.1337 46.34,53.0727 l 19.61,7.939 c 0,0 9.23,-20.129 18.46,-30.248 l 9.23,-10.119 c 5.9,8.413 11.8,16.957 17.71,25.632 8.06,11.846 15.89,23.593 23.49,35.231 12.25,-19.251 24.5,-38.504 36.75,-57.755 -0.34,-37.4541 -0.69,-74.9082 -1.03,-112.36233 C 1210.85,13.0524 1056.76,28.1801 902.681,43.3078 Z"
                 fill="#88a600"
                 id="path20006" /><path
                 d="M -0.613282,-49.8033 C -0.65311,23.202 -0.692939,96.2073 -0.732056,169.213 c 2.739616,-1.674 6.566686,-4.17 10.868156,-7.537 4.7765,-3.741 12.319,-8.486 17.6467,-17.536 l 7.3939,-12.56 c 0,0 13.1532,24.334 22.9716,41.033 0,0 28.3478,-29.975 39.7088,-47.78 l 11.3599,-17.806 c 0,0 -6.286,45.854 9.866,72.101 0,0 25.18,-22.747 32.214,-37.45 l 7.034,-14.704 c 0,0 -10.528,5.614 14.109,20.929 24.636,15.314 18.228,6.455 18.228,6.455 0,0 18.135,-14.16 16.268,-26.614 -1.868,-12.454 -3.814,-38.295 -3.814,-38.295 0,0 10.275,19.868 33.368,44.431 23.093,24.563 26.299,25.715 26.299,25.715 0,0 35.836,-41.757 34.954,-63.1559 -0.404,-9.7828 -0.622,-15.0936 -0.742,-17.9757 l -0.141,-3.4227 c 10.207,4.1366 41.699,18.3697 51.389,48.6113 1.205,3.762 2.159,8.038 2.594,12.833 11.057,-11.59 22.194,-24.395 33.092,-38.5097 2.824,-3.6573 5.551,-7.2969 8.184,-10.9147 0,0 -3.791,46.1804 7.343,66.4064 10.171,-8.529 26.505,-20.423 49.076,-29.352 16.503,-6.53 24.768,-6.897 54.319,-14.386 15.443,-3.914 28.698,-8.399 39.286,-12.4526 13.438,-5.1451 23.431,-9.8258 26.366,-11.2229 0.465,-0.2216 0.806,-0.3852 0.82,-0.392 8.606,-4.1258 241.804,-30.2738 795.601,-87.73688 V -49.8033 c -202.02,-1.0786 -404.03,-1.678 -606.032,-1.7993 -253.163,-0.1521 -506.333,0.4479 -759.511282,1.7993 z"
                 fill="#88a600"
                 id="path20008" /></g></g></g><g
           style="fill:none"
           id="g20030"
           transform="matrix(0.26458333,0,0,0.26458333,1304.7073,2011.5859)"><g
             clip-path="url(#clip0_67_1065)"
             id="g20028"><mask
               id="mask20018"
               maskUnits="userSpaceOnUse"
               x="0"
               y="0"
               width="1366"
               height="186"><path
                 d="M 1366,0 H 0 v 185.585 h 1366 z"
                 fill="#ffffff"
                 id="path20016" /></mask><g
               mask="url(#mask0_67_1065)"
               id="g20026"><path
                 d="m 448.015,55.7025 c -6.677,1.3807 -17.658,4.6228 -28.159,12.922 -21.644,17.107 -23.99,42.0635 -24.363,47.3175 10.423,0.058 23.185,0.253 37.82,0.754 15.138,0.518 23.298,1.056 28.659,6.816 3.03,3.256 2.819,5.658 5.597,12.028 2.614,5.997 7.037,13.582 15.008,21.528 1.92,-7.463 5.287,-16.923 11.437,-26.864 2.811,-4.545 5.763,-8.477 8.606,-11.831 1.199,4.352 3.138,9.514 6.355,14.901 8.698,14.567 21.526,22.056 28.224,25.335 8.406,-13.345 17.856,-27.162 28.486,-41.241 4.354,-5.767 8.718,-11.329 13.075,-16.69 0,0 -10.805,45.073 2.672,72.673 0,0 27.322,-20.35 35.782,-34.346 l 8.46,-13.996 c 0,0 -11.038,4.629 11.969,22.119 23.007,17.49 17.506,8.086 17.506,8.086 0,0 19.457,-12.443 18.832,-25.01 -0.624,-12.568 0,-38.4697 0,-38.4697 0,0 8.259,20.7147 28.813,47.2707 20.554,26.556 23.63,27.994 23.63,27.994 0,0 39.814,-38.304 41.057,-59.686 0.568,-9.775 0.876,-15.081 1.044,-17.9617 l 0.198,-3.4193 c 15.589,15.584 31.258,33.202 46.338,53.073 3.072,4.048 6.038,8.082 8.9,12.095 10.778,-10.717 21.555,-21.433 32.332,-32.15 1.11,4.165 2.131,8.528 3.025,13.083 2.968,15.104 3.906,29.048 3.769,41.318 0,0 32.151,-9.265 51.763,-24.748 19.611,-15.484 40.377,-28.913 59.989,-75.8371 L 994.45,25.8418 Z"
                 fill="#88a600"
                 id="path20020" /><path
                 d="m 902.681,43.3078 c -12.402,2.6509 -34.781,9.084 -57.177,25.919 -20.029,15.0561 -31.419,31.9272 -37.313,42.2922 0,0 17.611,11.475 50.771,5.779 l 33.159,-5.696 c 0,0 -10.464,19.357 -4.615,42.027 0,0 23.55,-10.993 32.155,-22.823 l 8.607,-11.83 c 3.545,4.798 7.641,9.849 12.367,14.99 8.871,9.654 17.833,17.317 25.905,23.321 6.631,-12.362 14.771,-25.651 24.792,-39.317 4.35,-5.931 8.728,-11.49 13.078,-16.69 0,0 -10.807,45.074 2.67,72.673 0,0 27.32,-20.35 35.78,-34.346 l 8.46,-13.996 c 0,0 -11.04,4.629 11.97,22.119 23.01,17.491 17.51,8.087 17.51,8.087 6.27,-21.16 12.55,-42.32 18.83,-63.4804 0,0 8.26,20.7144 28.81,47.2704 20.56,26.556 23.63,27.994 23.63,27.994 0,0 39.82,-38.303 41.06,-59.685 0.57,-9.7757 0.88,-15.0817 1.04,-17.9624 l 0.2,-3.4193 c 0,0 26.73,45.1337 46.34,53.0727 l 19.61,7.939 c 0,0 9.23,-20.129 18.46,-30.248 l 9.23,-10.119 c 5.9,8.413 11.8,16.957 17.71,25.632 8.06,11.846 15.89,23.593 23.49,35.231 12.25,-19.251 24.5,-38.504 36.75,-57.755 -0.34,-37.4541 -0.69,-74.9082 -1.03,-112.36233 C 1210.85,13.0524 1056.76,28.1801 902.681,43.3078 Z"
                 fill="#88a600"
                 id="path20022" /><path
                 d="M -0.613282,-49.8033 C -0.65311,23.202 -0.692939,96.2073 -0.732056,169.213 c 2.739616,-1.674 6.566686,-4.17 10.868156,-7.537 4.7765,-3.741 12.319,-8.486 17.6467,-17.536 l 7.3939,-12.56 c 0,0 13.1532,24.334 22.9716,41.033 0,0 28.3478,-29.975 39.7088,-47.78 l 11.3599,-17.806 c 0,0 -6.286,45.854 9.866,72.101 0,0 25.18,-22.747 32.214,-37.45 l 7.034,-14.704 c 0,0 -10.528,5.614 14.109,20.929 24.636,15.314 18.228,6.455 18.228,6.455 0,0 18.135,-14.16 16.268,-26.614 -1.868,-12.454 -3.814,-38.295 -3.814,-38.295 0,0 10.275,19.868 33.368,44.431 23.093,24.563 26.299,25.715 26.299,25.715 0,0 35.836,-41.757 34.954,-63.1559 -0.404,-9.7828 -0.622,-15.0936 -0.742,-17.9757 l -0.141,-3.4227 c 10.207,4.1366 41.699,18.3697 51.389,48.6113 1.205,3.762 2.159,8.038 2.594,12.833 11.057,-11.59 22.194,-24.395 33.092,-38.5097 2.824,-3.6573 5.551,-7.2969 8.184,-10.9147 0,0 -3.791,46.1804 7.343,66.4064 10.171,-8.529 26.505,-20.423 49.076,-29.352 16.503,-6.53 24.768,-6.897 54.319,-14.386 15.443,-3.914 28.698,-8.399 39.286,-12.4526 13.438,-5.1451 23.431,-9.8258 26.366,-11.2229 0.465,-0.2216 0.806,-0.3852 0.82,-0.392 8.606,-4.1258 241.804,-30.2738 795.601,-87.73688 V -49.8033 c -202.02,-1.0786 -404.03,-1.678 -606.032,-1.7993 -253.163,-0.1521 -506.333,0.4479 -759.511282,1.7993 z"
                 fill="#88a600"
                 id="path20024" /></g></g></g></g></g></g></svg>
