<svg width="70" height="76" viewBox="0 0 70 76" fill="none" xmlns="http://www.w3.org/2000/svg">
<path d="M2.38586 35.6395C4.92452 37.4108 6.08837 34.9255 5.96975 32.3733C5.91403 31.1792 6.44898 30.1387 7.19331 29.5584C5.67282 28.5211 4.23035 27.3437 2.88739 26.0867C-0.0118875 28.9964 0.211807 34.1222 2.38586 35.6395Z" fill="#8F473E"/>
<path d="M15.0041 33.213C13.5234 32.838 12.0762 32.2871 10.6735 31.5985C10.8041 33.7105 9.14266 36.8693 4.60747 41.1665C-1.42193 46.879 -1.31605 54.8118 3.65538 63.4858C8.62681 72.1605 16.9831 69.8328 16.9831 69.8328L15.949 66.5538C10.4657 65.8286 6.29991 57.6681 5.55877 53.7077C4.81843 49.748 7.78059 45.1866 10.7428 42.2244C12.9972 39.97 14.7565 36.8566 15.0041 33.213Z" fill="#7F3B36"/>
<path d="M14.762 29.6367C13.704 24.4535 9.26119 22.4959 4.60738 24.83C3.93789 25.1652 3.37348 25.599 2.88708 26.087C4.23005 27.344 5.67252 28.5214 7.19301 29.5586C8.03922 28.8987 9.1577 28.835 10.0015 29.8484C10.3956 30.3197 10.6312 30.9024 10.6742 31.5982C12.0761 32.2876 13.5233 32.8376 15.004 33.2134C15.082 32.0694 15.0152 30.8753 14.762 29.6367Z" fill="#7F3B36"/>
<path d="M56.1498 72.0174C55.938 72.0022 55.8107 71.9967 55.8107 71.9967C55.8107 71.9967 55.9173 72.0301 56.1498 72.0174Z" fill="#7F3B36"/>
<path d="M59.8624 59.1492C56.2921 58.2767 56.6503 50.859 57.0515 47.2042C54.0113 48.7088 51.4854 50.7125 51.4854 50.7125V51.1057C51.4854 51.1057 44.4983 71.7342 46.3898 74.1901C48.2813 76.6459 59.0361 76.056 60.8464 74.1901C62.4122 72.5748 57.5045 72.1131 56.1496 72.0176C55.9171 72.0303 55.8104 71.9961 55.8104 71.9961C55.8104 71.9961 55.9386 72.0025 56.1496 72.0176C57.042 71.9667 59.8131 71.2096 65.8051 65.0632C64.6738 62.7936 62.7012 59.8434 59.8624 59.1492Z" fill="#7F3B36"/>
<path d="M64.6981 45.9977C62.6028 45.0042 59.6415 45.9229 57.0519 47.2045C56.6498 50.8593 56.2924 58.2762 59.8628 59.1495C62.7007 59.8429 64.6742 62.7939 65.8054 65.0635C65.8078 65.0603 65.811 65.0571 65.8134 65.0539C73.3776 57.2939 69.2516 48.159 64.6981 45.9977Z" fill="#8F473E"/>
<path d="M48.109 68.002C47.996 68.1405 59.1919 55.9758 60.6375 53.1195C62.084 50.2641 57.8465 62.6079 49.8134 68.0028" fill="#6B2C2A"/>
<path d="M17.8134 72.0174C18.0243 72.0022 18.1525 71.9967 18.1525 71.9967C18.1525 71.9967 18.0458 72.0301 17.8134 72.0174Z" fill="#7F3B36"/>
<path d="M14.1007 59.1492C17.671 58.2767 17.3136 50.859 16.9116 47.2042C19.9518 48.7088 22.4769 50.7125 22.4769 50.7125V51.1057C22.4769 51.1057 29.4648 71.7342 27.5733 74.1901C25.6811 76.6459 14.927 76.056 13.1167 74.1901C11.5509 72.5748 16.4586 72.1131 17.8135 72.0176C18.046 72.0303 18.1527 71.9961 18.1527 71.9961C18.1527 71.9961 18.0245 72.0025 17.8135 72.0176C16.9211 71.9667 14.15 71.2096 8.15805 65.0632C9.28926 62.7936 11.2619 59.8434 14.1007 59.1492Z" fill="#7F3B36"/>
<path d="M9.26498 45.9977C11.3602 45.0042 14.3216 45.9229 16.9112 47.2045C17.3132 50.8593 17.6706 58.2762 14.1003 59.1495C11.2623 59.8429 9.28886 62.7939 8.15765 65.0635C8.15447 65.0603 8.15208 65.0571 8.14969 65.0539C0.585474 57.2939 4.71148 48.159 9.26498 45.9977Z" fill="#8F473E"/>
<path d="M25.8538 68.002C25.9676 68.1405 14.7717 55.9758 13.3253 53.1195C11.8796 50.2641 16.1171 62.6079 24.1494 68.0028" fill="#6B2C2A"/>
<path d="M51.1268 38.6731C50.6922 34.9109 50.236 32.373 50.236 32.373H23.2621C23.0575 32.373 22.345 36.7116 21.9231 42.5053C31.8461 43.2974 41.82 42.0014 51.1268 38.6731Z" fill="#7F3B36"/>
<path d="M21.923 42.5057C21.2265 52.0705 21.3212 65.6052 25.8007 70.1499C32.9947 77.4491 40.8073 76.4213 47.9958 68.1406C53.0015 62.3747 52.1226 47.2996 51.1267 38.6735C41.8199 42.001 31.846 43.297 21.923 42.5057Z" fill="#8F473E"/>
<path d="M50.0206 55.1741C48.5997 50.186 45.0858 43.8381 35.9557 44.3397C26.3297 44.869 24.8578 55.0237 24.8578 55.0237L27.3097 66.0189C35.8005 63.977 44.5047 60.8843 50.0206 55.1741Z" fill="#CA7A44"/>
<path d="M50.0207 55.1741C44.5047 60.8843 35.8005 63.977 27.3097 66.0189L28.2077 70.0446C28.2077 70.0446 27.613 75.0431 35.9558 75.1203C48.1093 75.2326 51.5053 61.053 50.2364 55.9757C50.1703 55.7138 50.0979 55.4455 50.0207 55.1741Z" fill="#C07040"/>
<path d="M30.3498 35.6395C33.3088 32.6806 22.9982 31.3822 22.9982 31.3822C22.9982 31.3822 20.4269 35.6873 18.865 42.1959C21.6592 42.5406 24.4629 42.7205 27.2611 42.7333C27.7539 39.8451 28.6964 37.2922 30.3498 35.6395Z" fill="#7F3B36"/>
<path d="M27.2607 42.7332C24.4633 42.7204 21.6588 42.5405 18.8654 42.1958C17.5861 47.5263 16.9835 54.3326 19.0318 61.4765C22.6961 74.2598 28.618 76.2866 31.3358 74.5933C34.0528 72.9009 28.181 62.9572 28.208 62.6396C28.2271 62.404 25.8254 51.1428 27.2607 42.7332Z" fill="#8F473E"/>
<path d="M50.6068 31.382C50.6068 31.382 40.2819 31.6925 43.2408 34.6514C44.7693 36.1799 45.8129 38.0706 46.5063 40.1395C48.8786 39.4756 51.2182 38.6883 53.5109 37.7712C52.0891 33.8092 50.6068 31.382 50.6068 31.382Z" fill="#7F3B36"/>
<path d="M46.5063 40.1398C49.6229 49.4387 45.5645 62.3803 45.5868 62.6398C45.6131 62.9567 39.7421 72.9011 42.4591 74.5936C45.1761 76.2868 51.098 74.26 54.7631 61.476C57.4339 52.1572 55.5337 43.4085 53.5109 37.7707C51.2182 38.6886 48.8786 39.4751 46.5063 40.1398Z" fill="#8F473E"/>
<path d="M19.5882 12.2396C19.5882 12.2396 13.1345 7.71398 8.13596 13.3461C3.13826 18.9791 5.38714 31.6135 18.7412 26.2878L19.5882 12.2396Z" fill="#8F473E"/>
<path d="M19.5882 13.6113C19.5882 13.6113 14.4352 9.99718 10.4438 14.495C6.45387 18.9927 8.24979 29.0797 18.9115 24.8279L19.5882 13.6113Z" fill="#CA7A44"/>
<path d="M55.09 12.2396C55.09 12.2396 61.5437 7.71398 66.5422 13.3461C71.5399 18.9791 69.291 31.6135 55.937 26.2878L55.09 12.2396Z" fill="#8F473E"/>
<path d="M55.09 13.6113C55.09 13.6113 60.2429 9.99718 64.2336 14.495C68.2243 18.9927 66.4284 29.0797 55.7659 24.8279L55.09 13.6113Z" fill="#CA7A44"/>
<path d="M36.8553 36.9882C36.8553 36.9882 24.0044 38.234 19.1636 27.3096C13.2926 14.0607 24.0029 6.20587 30.0323 2.79473C36.0625 -0.616413 37.0934 -0.934048 36.3793 2.00185C36.3793 2.00185 40.7425 -0.775627 40.8221 0.494099C40.9017 1.76303 39.632 2.63631 39.632 2.63631C39.632 2.63631 43.0432 0.0180473 43.5988 1.36658C44.1545 2.71512 43.5988 3.11236 43.5988 3.11236C43.5988 3.11236 57.4034 8.58611 57.3238 18.9795C57.2442 29.3722 50.4219 36.6705 36.8553 36.9882Z" fill="#8F473E"/>
<path d="M37.3921 12.4736C37.3921 12.4736 31.381 7.0787 26.4621 10.2526C21.5432 13.4257 22.7198 22.9459 22.7198 22.9459C22.7198 22.9459 19.0053 22.7079 21.2264 27.2295C23.4474 31.752 28.3249 35.6392 37.3921 35.6392C46.4593 35.6392 50.8973 29.2929 52.7227 26.9127C54.5473 24.5324 53.674 20.4072 50.1833 21.7558C50.1833 21.7558 51.929 11.5056 47.0101 9.25276C42.0913 6.99989 37.3921 12.4736 37.3921 12.4736Z" fill="#CA7A44"/>
<path d="M36.8807 23.8749C36.8807 23.8749 34.6995 22.5391 35.5457 22.0105C36.3919 21.4819 38.2929 21.7987 38.1695 22.3281C38.0469 22.8567 36.8807 23.8749 36.8807 23.8749Z" fill="black"/>
<path d="M35.4316 24.8302C35.4316 24.8302 35.8702 25.7226 36.7626 24.8302C36.7626 24.8302 37.4672 25.4949 38.1311 24.8302" stroke="black" stroke-width="1.33333" stroke-miterlimit="10" stroke-linecap="round" stroke-linejoin="round"/>
<path d="M36.7816 22.807L36.7632 24.8298" stroke="black" stroke-width="1.33333" stroke-miterlimit="10" stroke-linecap="round" stroke-linejoin="round"/>
<path d="M32.8755 22.2073C32.8755 22.2073 34.3435 20.7242 36.7627 20.7242C39.1828 20.7242 40.6499 22.3705 40.6499 22.3705" stroke="black" stroke-width="1.33333" stroke-miterlimit="10" stroke-linecap="round" stroke-linejoin="round"/>
<path d="M30.3498 21.2303C30.3498 21.86 30.0298 22.3711 29.6358 22.3711C29.2417 22.3711 28.9217 21.86 28.9217 21.2303C28.9217 20.6006 29.2417 20.0896 29.6358 20.0896C30.0298 20.0896 30.3498 20.6006 30.3498 21.2303Z" fill="black"/>
<path d="M44.5898 21.2303C44.5898 21.86 44.2698 22.3711 43.8758 22.3711C43.4817 22.3711 43.1617 21.86 43.1617 21.2303C43.1617 20.6006 43.4817 20.0896 43.8758 20.0896C44.2698 20.0896 44.5898 20.6006 44.5898 21.2303Z" fill="black"/>
<path d="M31.3235 26.1763C31.1746 26.9453 29.6597 27.2988 27.9386 26.966C26.2175 26.6332 24.943 25.7401 25.0919 24.9711C25.2408 24.2029 26.7565 23.8486 28.4768 24.1814C30.1979 24.5141 31.4724 25.4073 31.3235 26.1763Z" fill="#F09993"/>
<path d="M41.7524 26.1763C41.9013 26.9453 43.417 27.2988 45.1373 26.966C46.8584 26.6332 48.1329 25.7401 47.984 24.9711C47.8351 24.2029 46.3194 23.8486 44.5991 24.1814C42.878 24.5141 41.6035 25.4073 41.7524 26.1763Z" fill="#F09993"/>
</svg>
